<svg xmlns="http://www.w3.org/2000/svg" viewBox="0 0 1200 390" width="1200" height="390" role="img" aria-label="Aaditya Singh project constellation">
<defs>
<linearGradient id="g" x1="0" x2="1"><stop stop-color="#7c3aed"/><stop offset=".5" stop-color="#06b6d4"/><stop offset="1" stop-color="#22c55e"/></linearGradient>
<filter id="glow"><feGaussianBlur stdDeviation="5" result="b"/><feMerge><feMergeNode in="b"/><feMergeNode in="SourceGraphic"/></feMerge></filter>
</defs>
<rect width="1200" height="390" rx="28" fill="#09090b"/>
<rect x="1" y="1" width="1198" height="388" rx="27" fill="none" stroke="#27272a"/>
<text x="55" y="52" fill="#fafafa" font-family="Arial,sans-serif" font-size="27" font-weight="700">PROJECT CONSTELLATION</text>
<text x="55" y="79" fill="#71717a" font-family="Arial,sans-serif" font-size="15">Systems I've built — from AI and automation to real-world software.</text>

<g stroke="url(#g)" stroke-width="1.5" opacity=".32">
<path d="M600 195L190 140"/><path d="M600 195L355 305"/><path d="M600 195L830 120"/>
<path d="M600 195L1010 155"/><path d="M600 195L920 305"/><path d="M600 195L365 105"/>
</g>

<g fill="none" stroke="#27272a" stroke-width="1">
<circle cx="600" cy="195" r="88"/><circle cx="600" cy="195" r="132"/>
</g>

<g font-family="Arial,sans-serif" text-anchor="middle">
<circle cx="600" cy="195" r="58" fill="#15111f" stroke="url(#g)" stroke-width="3" filter="url(#glow)"/>
<text x="600" y="188" fill="#a78bfa" font-size="11" letter-spacing="2">BUILDER</text>
<text x="600" y="214" fill="#fff" font-size="20" font-weight="700">AI × SOFTWARE</text>

<g><circle cx="190" cy="140" r="42" fill="#0f172a" stroke="#06b6d4" stroke-width="2"/>
<text x="190" y="136" fill="#fff" font-size="15" font-weight="700">AutoFlow</text><text x="190" y="156" fill="#67e8f9" font-size="11">Automation</text></g>

<g><circle cx="365" cy="105" r="42" fill="#0f172a" stroke="#f59e0b" stroke-width="2"/>
<text x="365" y="101" fill="#fff" font-size="14" font-weight="700">Smart AI</text><text x="365" y="121" fill="#fcd34d" font-size="11">Study • RAG</text></g>

<g><circle cx="355" cy="305" r="42" fill="#0f172a" stroke="#ec4899" stroke-width="2"/>
<text x="355" y="301" fill="#fff" font-size="15" font-weight="700">SettleHub</text><text x="355" y="321" fill="#f9a8d4" font-size="11">Fintech • PWA</text></g>

<g><circle cx="830" cy="120" r="42" fill="#0f172a" stroke="#8b5cf6" stroke-width="2"/>
<text x="830" y="116" fill="#fff" font-size="15" font-weight="700">RCPC</text><text x="830" y="136" fill="#c4b5fd" font-size="11">Remote Control</text></g>

<g><circle cx="1010" cy="155" r="42" fill="#0f172a" stroke="#22c55e" stroke-width="2"/>
<text x="1010" y="151" fill="#fff" font-size="15" font-weight="700">GlobalCart</text><text x="1010" y="171" fill="#86efac" font-size="11">E-Commerce</text></g>

<g><circle cx="920" cy="305" r="42" fill="#0f172a" stroke="#38bdf8" stroke-width="2"/>
<text x="920" y="301" fill="#fff" font-size="15" font-weight="700">ToolKit</text><text x="920" y="321" fill="#7dd3fc" font-size="11">Developer Tools</text></g>
</g>

<text x="600" y="370" text-anchor="middle" fill="#52525b" font-family="Arial,sans-serif" font-size="10" letter-spacing="1.5">EXPLORE • BUILD • AUTOMATE • SHIP</text>
</svg>